<mxfile host="Electron" agent="Mozilla/5.0 (Windows NT 10.0; Win64; x64) AppleWebKit/537.36 (KHTML, like Gecko) draw.io/24.7.17 Chrome/128.0.6613.36 Electron/32.0.1 Safari/537.36" version="24.7.17">
  <diagram name="Page-1" id="YQrAqeVzvDUJnCYxXodb">
    <mxGraphModel dx="989" dy="577" grid="1" gridSize="1" guides="1" tooltips="1" connect="1" arrows="1" fold="1" page="1" pageScale="1" pageWidth="3300" pageHeight="2339" math="0" shadow="0">
      <root>
        <mxCell id="0" />
        <mxCell id="1" parent="0" />
        <mxCell id="Hi6SgGGLOk0A_SMAhc0F-1" value="Customer" style="swimlane;whiteSpace=wrap;shadow=1;fillColor=#FFFFFF;" vertex="1" parent="1">
          <mxGeometry x="410" y="240" width="280" height="400" as="geometry" />
        </mxCell>
        <mxCell id="Hi6SgGGLOk0A_SMAhc0F-58" style="edgeStyle=orthogonalEdgeStyle;rounded=0;orthogonalLoop=1;jettySize=auto;html=1;entryX=0.5;entryY=0;entryDx=0;entryDy=0;" edge="1" parent="Hi6SgGGLOk0A_SMAhc0F-1" source="Hi6SgGGLOk0A_SMAhc0F-14" target="Hi6SgGGLOk0A_SMAhc0F-25">
          <mxGeometry relative="1" as="geometry" />
        </mxCell>
        <mxCell id="Hi6SgGGLOk0A_SMAhc0F-14" value="" style="ellipse;shape=startState;fillColor=#000000;strokeColor=#ff0000;" vertex="1" parent="Hi6SgGGLOk0A_SMAhc0F-1">
          <mxGeometry x="97.75" y="31" width="30" height="30" as="geometry" />
        </mxCell>
        <mxCell id="Hi6SgGGLOk0A_SMAhc0F-25" value="enter promo code" style="rounded=1;whiteSpace=wrap;html=1;fillColor=#FFFFC0;shadow=1;" vertex="1" parent="Hi6SgGGLOk0A_SMAhc0F-1">
          <mxGeometry x="60" y="100" width="105.5" height="40" as="geometry" />
        </mxCell>
        <mxCell id="Hi6SgGGLOk0A_SMAhc0F-12" value="System" style="swimlane;whiteSpace=wrap;fillColor=#FFFFFF;" vertex="1" parent="1">
          <mxGeometry x="690" y="240" width="350" height="400" as="geometry" />
        </mxCell>
        <mxCell id="Hi6SgGGLOk0A_SMAhc0F-35" style="edgeStyle=orthogonalEdgeStyle;rounded=0;orthogonalLoop=1;jettySize=auto;html=1;entryX=0.5;entryY=0;entryDx=0;entryDy=0;" edge="1" parent="Hi6SgGGLOk0A_SMAhc0F-12" source="Hi6SgGGLOk0A_SMAhc0F-26" target="Hi6SgGGLOk0A_SMAhc0F-34">
          <mxGeometry relative="1" as="geometry" />
        </mxCell>
        <mxCell id="Hi6SgGGLOk0A_SMAhc0F-37" value="[No]" style="edgeLabel;html=1;align=center;verticalAlign=middle;resizable=0;points=[];" vertex="1" connectable="0" parent="Hi6SgGGLOk0A_SMAhc0F-35">
          <mxGeometry x="-0.4676" y="-1" relative="1" as="geometry">
            <mxPoint as="offset" />
          </mxGeometry>
        </mxCell>
        <mxCell id="Hi6SgGGLOk0A_SMAhc0F-49" style="edgeStyle=orthogonalEdgeStyle;rounded=0;orthogonalLoop=1;jettySize=auto;html=1;entryX=0.5;entryY=0;entryDx=0;entryDy=0;" edge="1" parent="Hi6SgGGLOk0A_SMAhc0F-12" source="Hi6SgGGLOk0A_SMAhc0F-26" target="Hi6SgGGLOk0A_SMAhc0F-27">
          <mxGeometry relative="1" as="geometry" />
        </mxCell>
        <mxCell id="Hi6SgGGLOk0A_SMAhc0F-50" value="[Yes]" style="edgeLabel;html=1;align=center;verticalAlign=middle;resizable=0;points=[];" vertex="1" connectable="0" parent="Hi6SgGGLOk0A_SMAhc0F-49">
          <mxGeometry x="-0.3" y="-1" relative="1" as="geometry">
            <mxPoint as="offset" />
          </mxGeometry>
        </mxCell>
        <mxCell id="Hi6SgGGLOk0A_SMAhc0F-26" value="is valid?" style="rhombus;fillColor=#FFFFC0;strokeColor=#ff0000;" vertex="1" parent="Hi6SgGGLOk0A_SMAhc0F-12">
          <mxGeometry x="68.63" y="100" width="80" height="40" as="geometry" />
        </mxCell>
        <mxCell id="Hi6SgGGLOk0A_SMAhc0F-60" style="edgeStyle=orthogonalEdgeStyle;rounded=0;orthogonalLoop=1;jettySize=auto;html=1;entryX=0;entryY=0;entryDx=0;entryDy=0;" edge="1" parent="Hi6SgGGLOk0A_SMAhc0F-12" source="Hi6SgGGLOk0A_SMAhc0F-27" target="Hi6SgGGLOk0A_SMAhc0F-11">
          <mxGeometry relative="1" as="geometry" />
        </mxCell>
        <mxCell id="Hi6SgGGLOk0A_SMAhc0F-27" value="update item price" style="rounded=1;whiteSpace=wrap;html=1;fillColor=#FFFFC0;shadow=1;" vertex="1" parent="Hi6SgGGLOk0A_SMAhc0F-12">
          <mxGeometry x="55.88" y="200" width="105.5" height="40" as="geometry" />
        </mxCell>
        <mxCell id="Hi6SgGGLOk0A_SMAhc0F-61" style="edgeStyle=orthogonalEdgeStyle;rounded=0;orthogonalLoop=1;jettySize=auto;html=1;entryX=1;entryY=0;entryDx=0;entryDy=0;" edge="1" parent="Hi6SgGGLOk0A_SMAhc0F-12" source="Hi6SgGGLOk0A_SMAhc0F-33" target="Hi6SgGGLOk0A_SMAhc0F-11">
          <mxGeometry relative="1" as="geometry" />
        </mxCell>
        <mxCell id="Hi6SgGGLOk0A_SMAhc0F-33" value="keep item price" style="rounded=1;whiteSpace=wrap;html=1;fillColor=#FFFFC0;shadow=1;" vertex="1" parent="Hi6SgGGLOk0A_SMAhc0F-12">
          <mxGeometry x="188.63" y="280" width="105.5" height="40" as="geometry" />
        </mxCell>
        <mxCell id="Hi6SgGGLOk0A_SMAhc0F-36" style="edgeStyle=orthogonalEdgeStyle;rounded=0;orthogonalLoop=1;jettySize=auto;html=1;entryX=0.5;entryY=0;entryDx=0;entryDy=0;" edge="1" parent="Hi6SgGGLOk0A_SMAhc0F-12" source="Hi6SgGGLOk0A_SMAhc0F-34" target="Hi6SgGGLOk0A_SMAhc0F-33">
          <mxGeometry relative="1" as="geometry" />
        </mxCell>
        <mxCell id="Hi6SgGGLOk0A_SMAhc0F-34" value="Display error message" style="rounded=1;whiteSpace=wrap;html=1;fillColor=#FFFFC0;shadow=1;" vertex="1" parent="Hi6SgGGLOk0A_SMAhc0F-12">
          <mxGeometry x="188.63" y="200" width="105.5" height="40" as="geometry" />
        </mxCell>
        <mxCell id="Hi6SgGGLOk0A_SMAhc0F-11" value="" style="ellipse;shape=endState;fillColor=#000000;strokeColor=#ff0000" vertex="1" parent="Hi6SgGGLOk0A_SMAhc0F-12">
          <mxGeometry x="93.63" y="354" width="30" height="29" as="geometry" />
        </mxCell>
        <mxCell id="Hi6SgGGLOk0A_SMAhc0F-22" value="&lt;span style=&quot;font-size: 24px; text-wrap: nowrap;&quot;&gt;Apply Discount&lt;/span&gt;" style="rounded=0;whiteSpace=wrap;html=1;" vertex="1" parent="1">
          <mxGeometry x="410" y="210" width="630" height="30" as="geometry" />
        </mxCell>
        <mxCell id="Hi6SgGGLOk0A_SMAhc0F-57" style="edgeStyle=orthogonalEdgeStyle;rounded=0;orthogonalLoop=1;jettySize=auto;html=1;entryX=0;entryY=0.5;entryDx=0;entryDy=0;" edge="1" parent="1" source="Hi6SgGGLOk0A_SMAhc0F-25" target="Hi6SgGGLOk0A_SMAhc0F-26">
          <mxGeometry relative="1" as="geometry" />
        </mxCell>
      </root>
    </mxGraphModel>
  </diagram>
</mxfile>
